<svg width="1529" height="219" viewBox="0 0 1529 219" fill="none" xmlns="http://www.w3.org/2000/svg">
<path d="M93.2439 239.88C131.548 239.88 160.348 222.312 170.716 193.224L120.316 168.456C113.692 183.144 104.188 189.192 92.9559 189.192C78.2679 189.192 66.1719 178.824 66.1719 158.088C66.1719 137.64 78.2679 127.272 92.9559 127.272C104.188 127.272 113.692 133.32 120.316 148.008L170.716 123.24C160.348 94.152 131.548 76.584 93.2439 76.584C38.8119 76.584 0.219875 110.28 0.219875 158.088C0.219875 206.184 38.8119 239.88 93.2439 239.88ZM256.319 76.584C231.839 76.584 203.903 82.92 185.471 94.44L206.207 137.352C216.575 129.576 232.415 124.968 246.527 124.968C264.959 124.968 274.175 131.304 276.191 143.4H249.983C201.023 143.4 177.983 160.392 177.983 190.92C177.983 217.992 197.855 239.88 236.447 239.88C258.623 239.88 273.599 232.104 281.087 216.264V237H341.567V152.328C341.567 99.912 310.463 76.584 256.319 76.584ZM256.031 200.712C246.239 200.712 240.479 195.24 240.479 188.04C240.479 179.4 246.527 174.792 260.351 174.792H276.479V185.736C273.023 196.104 264.959 200.712 256.031 200.712ZM474.817 76.584C455.233 76.584 441.121 81.768 431.617 92.424V79.464H369.697V292.872H434.785V226.344C444.289 235.56 457.537 239.88 474.817 239.88C516.001 239.88 550.849 209.064 550.849 158.376C550.849 107.688 516.001 76.584 474.817 76.584ZM459.265 189.192C444.865 189.192 433.633 178.824 433.633 158.376C433.633 137.928 444.865 127.272 459.265 127.272C473.665 127.272 484.897 137.928 484.897 158.376C484.897 178.824 473.665 189.192 459.265 189.192ZM676.473 76.584C656.889 76.584 642.777 81.768 633.273 92.424V79.464L571.353 79.464V292.872H636.441V226.344C645.945 235.56 659.193 239.88 676.473 239.88C717.657 239.88 752.505 209.064 752.505 158.376C752.505 107.688 717.657 76.584 676.473 76.584ZM660.921 189.192C646.521 189.192 635.289 178.824 635.289 158.376C635.289 137.928 646.521 127.272 660.921 127.272C675.321 127.272 686.553 137.928 686.553 158.376C686.553 178.824 675.321 189.192 660.921 189.192ZM880.145 79.464V153.48C880.145 176.808 869.201 185.16 857.969 185.16C845.297 185.16 837.521 177.672 837.521 155.208V79.464L772.433 79.464V166.44C772.433 217.704 800.945 239.88 838.673 239.88C855.665 239.88 871.505 234.12 883.313 222.024V237H945.233V79.464H880.145ZM1058.78 239.88C1097.08 239.88 1125.88 222.312 1136.25 193.224L1085.85 168.456C1079.22 183.144 1069.72 189.192 1058.49 189.192C1043.8 189.192 1031.7 178.824 1031.7 158.088C1031.7 137.64 1043.8 127.272 1058.49 127.272C1069.72 127.272 1079.22 133.32 1085.85 148.008L1136.25 123.24C1125.88 94.152 1097.08 76.584 1058.78 76.584C1004.34 76.584 965.751 110.28 965.751 158.088C965.751 206.184 1004.34 239.88 1058.78 239.88ZM1234.56 239.88C1272.86 239.88 1301.66 222.312 1312.03 193.224L1261.63 168.456C1255 183.144 1245.5 189.192 1234.27 189.192C1219.58 189.192 1207.48 178.824 1207.48 158.088C1207.48 137.64 1219.58 127.272 1234.27 127.272C1245.5 127.272 1255 133.32 1261.63 148.008L1312.03 123.24C1301.66 94.152 1272.86 76.584 1234.56 76.584C1180.12 76.584 1141.53 110.28 1141.53 158.088C1141.53 206.184 1180.12 239.88 1234.56 239.88ZM1359.62 66.792C1383.52 66.792 1398.78 52.392 1398.78 32.52C1398.78 13.8 1383.52 0.551989 1359.62 0.551989C1335.71 0.551989 1320.45 14.952 1320.45 33.672C1320.45 52.392 1335.71 66.792 1359.62 66.792ZM1327.07 237L1392.16 237V79.464H1327.07V237ZM1530.45 76.584C1512.02 76.584 1495.31 82.632 1482.93 95.016V79.464H1421.01V237H1486.1V162.984C1486.1 139.656 1497.33 131.304 1510.58 131.304C1522.39 131.304 1529.87 138.792 1529.87 158.376V237H1594.96V147.144C1594.96 97.608 1566.74 76.584 1530.45 76.584ZM1709.27 239.88C1762.84 239.88 1800.86 205.896 1800.86 158.088C1800.86 110.28 1762.84 76.584 1709.27 76.584C1655.99 76.584 1617.69 110.28 1617.69 158.088C1617.69 205.896 1655.99 239.88 1709.27 239.88ZM1709.27 189.192C1694.87 189.192 1683.64 178.536 1683.64 158.088C1683.64 137.64 1694.87 127.272 1709.27 127.272C1723.67 127.272 1734.9 137.64 1734.9 158.088C1734.9 178.536 1723.67 189.192 1709.27 189.192Z" fill="#D7CEC4" fill-opacity="0.4"/>
</svg>
