<svg width="233" height="233" viewBox="0 0 233 233" fill="none" xmlns="http://www.w3.org/2000/svg">
<path d="M233 233L230.31 230.31L233 227.413L233 233Z" fill="#2B2826"/>
<path d="M70.5618 70.5625L141.331 0.000289837L146.918 0.000289917L73.4588 73.4595L70.5618 70.5625Z" fill="#2B2826"/>
<path d="M79.4602 79.4605L159.127 0.00038139L164.714 0.00038147L82.3572 82.3574L79.4602 79.4605Z" fill="#2B2826"/>
<path d="M88.3576 88.3579L176.923 -3.05945e-05L182.303 -3.05176e-05L91.2546 91.2549L88.3576 88.3579Z" fill="#2B2826"/>
<path d="M97.2559 97.2558L194.512 -5.34857e-05L200.099 -5.34058e-05L99.946 99.9458L97.2559 97.2558Z" fill="#2B2826"/>
<path d="M106.153 106.154L212.307 1.51789e-05L217.894 1.52588e-05L108.843 108.844L106.153 106.154Z" fill="#2B2826"/>
<path d="M115.051 115.052L230.103 8.38819e-05L233 8.39233e-05L233 2.48321L117.742 117.742L115.051 115.052Z" fill="#2B2826"/>
<path d="M123.949 123.95L233 14.692L233 20.279L126.639 126.64L123.949 123.95Z" fill="#2B2826"/>
<path d="M8.48361 8.48387L17.1746 -0.000141224L22.7616 -0.000141144L11.3806 11.3809L8.48361 8.48387Z" fill="#2B2826"/>
<path d="M5.10463e-05 -0.000210833L4.96631 -0.000210762L2.48317 2.48291L5.10463e-05 -0.000210833Z" fill="#2B2826"/>
<path d="M17.3819 17.3818L34.9707 -5.5393e-05L40.5577 -5.53131e-05L20.2789 20.2788L17.3819 17.3818Z" fill="#2B2826"/>
<path d="M26.28 26.2798L52.7667 1.89936e-05L58.3538 1.90735e-05L29.177 29.1768L26.28 26.2798Z" fill="#2B2826"/>
<path d="M35.1776 35.1776L70.3552 -7.99309e-08L75.9423 0L37.8676 37.8677L35.1776 35.1776Z" fill="#2B2826"/>
<path d="M44.0754 44.0756L88.1509 6.85846e-05L93.7379 6.86646e-05L46.7654 46.7656L44.0754 44.0756Z" fill="#2B2826"/>
<path d="M52.9734 52.9735L105.947 0.000133434L111.534 0.000133514L55.6635 55.6636L52.9734 52.9735Z" fill="#2B2826"/>
<path d="M61.8712 61.8715L123.536 0.000221173L129.123 0.000221252L64.5613 64.5615L61.8712 61.8715Z" fill="#2B2826"/>
<path d="M132.64 132.641L233 32.4878L233 38.0749L135.537 135.538L132.64 132.641Z" fill="#2B2826"/>
<path d="M141.538 141.538L233 50.0762L233 55.6633L144.435 144.435L141.538 141.538Z" fill="#2B2826"/>
<path d="M150.436 150.437L233 67.8725L233 73.4596L153.333 153.333L150.436 150.437Z" fill="#2B2826"/>
<path d="M159.334 159.334L233 85.6678L233 91.2548L162.024 162.024L159.334 159.334Z" fill="#2B2826"/>
<path d="M168.232 168.232L233 103.464L233 108.844L170.922 170.922L168.232 168.232Z" fill="#2B2826"/>
<path d="M177.13 177.13L233 121.052L233 126.64L179.82 179.82L177.13 177.13Z" fill="#2B2826"/>
<path d="M185.821 185.821L233 138.848L233 144.435L188.718 188.718L185.821 185.821Z" fill="#2B2826"/>
<path d="M194.718 194.719L233 156.644L233 162.231L197.615 197.616L194.718 194.719Z" fill="#2B2826"/>
<path d="M203.616 203.617L233 174.233L233 179.82L206.513 206.514L203.616 203.617Z" fill="#2B2826"/>
<path d="M212.514 212.515L233 192.029L233 197.616L215.204 215.205L212.514 212.515Z" fill="#2B2826"/>
<path d="M221.412 221.412L233 209.825L233 215.412L224.102 224.103L221.412 221.412Z" fill="#2B2826"/>
</svg>
