<svg width="1380" height="143" viewBox="0 0 1380 143" fill="none" xmlns="http://www.w3.org/2000/svg">
<path d="M176.204 82.088C176.204 28.808 136.172 0.583988 89.5155 0.583988C38.5395 0.583988 0.2355 34.28 0.2355 82.088C0.2355 129.032 37.6755 163.88 95.5635 163.88C126.956 163.88 149.132 155.24 164.396 138.536L130.412 104.264C120.044 112.04 111.98 115.784 97.5795 115.784C81.4515 115.784 70.5075 109.448 65.8995 97.352H175.34C175.628 92.744 176.204 86.696 176.204 82.088ZM90.0915 44.936C103.34 44.936 112.844 52.712 115.436 65.96H64.7475C67.3395 52.712 76.5555 44.936 90.0915 44.936ZM258.376 163.88C313.096 163.88 339.88 139.112 339.88 110.6C339.88 47.528 249.448 68.84 249.448 52.424C249.448 48.68 254.056 44.936 270.76 44.936C284.008 44.936 300.136 47.528 316.264 56.456L334.12 13.544C317.416 4.90398 292.936 0.583988 269.896 0.583988C216.904 0.583988 189.256 24.776 189.256 54.44C189.256 117.512 279.976 95.912 279.976 112.04C279.976 116.648 275.656 119.528 259.816 119.528C241.096 119.528 219.784 114.344 204.808 105.416L186.952 148.328C203.08 157.544 231.304 163.88 258.376 163.88ZM464.708 0.583988C445.124 0.583988 431.012 5.76799 421.508 16.424V3.46399H359.588V216.872H424.676V150.344C434.18 159.56 447.428 163.88 464.708 163.88C505.892 163.88 540.74 133.064 540.74 82.376C540.74 31.688 505.892 0.583988 464.708 0.583988ZM449.156 113.192C434.756 113.192 423.524 102.824 423.524 82.376C423.524 61.928 434.756 51.272 449.156 51.272C463.556 51.272 474.788 61.928 474.788 82.376C474.788 102.824 463.556 113.192 449.156 113.192ZM623.164 20.456V3.46399L561.244 3.46399V161H626.332V91.016C626.332 65.96 640.156 57.032 659.74 57.032C664.348 57.032 668.38 57.32 674.14 58.184V0.583988C652.252 0.583988 634.684 7.20799 623.164 20.456ZM858.797 82.088C858.797 28.808 818.765 0.583988 772.109 0.583988C721.133 0.583988 682.829 34.28 682.829 82.088C682.829 129.032 720.269 163.88 778.157 163.88C809.549 163.88 831.725 155.24 846.989 138.536L813.005 104.264C802.637 112.04 794.573 115.784 780.173 115.784C764.045 115.784 753.101 109.448 748.493 97.352H857.933C858.221 92.744 858.797 86.696 858.797 82.088ZM772.685 44.936C785.933 44.936 795.437 52.712 798.029 65.96H747.341C749.933 52.712 759.149 44.936 772.685 44.936ZM940.969 163.88C995.69 163.88 1022.47 139.112 1022.47 110.6C1022.47 47.528 932.042 68.84 932.042 52.424C932.042 48.68 936.65 44.936 953.354 44.936C966.602 44.936 982.73 47.528 998.858 56.456L1016.71 13.544C1000.01 4.90398 975.53 0.583988 952.49 0.583988C899.498 0.583988 871.85 24.776 871.85 54.44C871.85 117.512 962.57 95.912 962.57 112.04C962.57 116.648 958.25 119.528 942.41 119.528C923.69 119.528 902.378 114.344 887.402 105.416L869.546 148.328C885.674 157.544 913.898 163.88 940.969 163.88ZM1103.81 163.88C1158.53 163.88 1185.32 139.112 1185.32 110.6C1185.32 47.528 1094.89 68.84 1094.89 52.424C1094.89 48.68 1099.49 44.936 1116.2 44.936C1129.45 44.936 1145.57 47.528 1161.7 56.456L1179.56 13.544C1162.85 4.90398 1138.37 0.583988 1115.33 0.583988C1062.34 0.583988 1034.69 24.776 1034.69 54.44C1034.69 117.512 1125.41 95.912 1125.41 112.04C1125.41 116.648 1121.09 119.528 1105.25 119.528C1086.53 119.528 1065.22 114.344 1050.25 105.416L1032.39 148.328C1048.52 157.544 1076.74 163.88 1103.81 163.88ZM1288.26 163.88C1341.83 163.88 1379.84 129.896 1379.84 82.088C1379.84 34.28 1341.83 0.583988 1288.26 0.583988C1234.98 0.583988 1196.67 34.28 1196.67 82.088C1196.67 129.896 1234.98 163.88 1288.26 163.88ZM1288.26 113.192C1273.86 113.192 1262.62 102.536 1262.62 82.088C1262.62 61.64 1273.86 51.272 1288.26 51.272C1302.66 51.272 1313.89 61.64 1313.89 82.088C1313.89 102.536 1302.66 113.192 1288.26 113.192Z" fill="#D7CEC4" fill-opacity="0.4"/>
</svg>
