<svg width="30" height="30" viewBox="0 0 30 30" fill="none" xmlns="http://www.w3.org/2000/svg">
<g clip-path="url(#clip0)">
<path d="M26.1325 14.2471H22.1148C22.0569 12.4053 21.8138 10.5866 21.3854 8.94175H23.8053C24.2221 8.94175 24.5578 8.60582 24.5578 8.1888C24.5578 7.77178 24.2221 7.43585 23.8053 7.43585H20.9339C20.4707 6.1153 19.9034 4.96851 19.2435 4.0418C19.1277 3.87963 18.954 3.77538 18.7572 3.74062C18.5603 3.70587 18.3635 3.75221 18.2014 3.86805C18.0393 3.98388 17.9351 4.15764 17.9004 4.35457C17.8657 4.55149 17.912 4.74841 18.0278 4.91059C18.5256 5.60561 18.9656 6.46281 19.3477 7.43585H15.7584V3.85646C15.7584 3.43945 15.4227 3.10352 15.0059 3.10352C14.589 3.10352 14.2533 3.43945 14.2533 3.85646V7.43585H10.664C11.0345 6.46281 11.4861 5.6172 11.984 4.91059C12.0997 4.74841 12.1461 4.55149 12.1113 4.35457C12.0766 4.15764 11.9724 3.98388 11.8103 3.86805C11.4745 3.62479 10.9998 3.70587 10.7683 4.0418C10.1083 4.96851 9.54097 6.1153 9.07784 7.43585H6.19488C5.77807 7.43585 5.4423 7.77178 5.4423 8.1888C5.4423 8.60582 5.77807 8.94175 6.19488 8.94175H8.61472C8.18632 10.5866 7.94318 12.4053 7.88529 14.2471H3.8561C3.43928 14.2471 3.10352 14.5831 3.10352 15.0001C3.10352 15.4171 3.43928 15.753 3.8561 15.753H7.87371C7.93161 17.5948 8.17475 19.4135 8.60314 21.0584H6.19488C5.77807 21.0584 5.4423 21.3943 5.4423 21.8113C5.4423 22.2284 5.77807 22.5643 6.19488 22.5643H9.06626C9.52939 23.8848 10.0967 25.0316 10.7567 25.9583C10.8956 26.1553 11.1272 26.2711 11.3703 26.2711C11.5324 26.2711 11.6829 26.2248 11.8103 26.1321C12.1461 25.8888 12.2271 25.4255 11.984 25.0895C11.4861 24.3829 11.0461 23.5373 10.664 22.5643H14.2533V26.1437C14.2533 26.5607 14.589 26.8966 15.0059 26.8966C15.4227 26.8966 15.7584 26.5607 15.7584 26.1437V22.5643H19.3477C18.9772 23.5373 18.5256 24.3829 18.0278 25.0895C17.7846 25.4255 17.8657 25.9004 18.2014 26.1321C18.3288 26.2248 18.4793 26.2711 18.6414 26.2711C18.8845 26.2711 19.1161 26.1553 19.255 25.9583C19.915 25.0316 20.4823 23.8848 20.9454 22.5643H23.8168C24.2336 22.5643 24.5694 22.2284 24.5694 21.8113C24.5694 21.3943 24.2336 21.0584 23.8168 21.0584H21.397C21.8254 19.4135 22.0685 17.5948 22.1264 15.753H26.144C26.5609 15.753 26.8966 15.4171 26.8966 15.0001C26.8966 14.5831 26.5493 14.2471 26.1325 14.2471ZM20.6097 15.753C20.5518 17.618 20.2855 19.4367 19.8339 21.0584H15.7469V15.753H20.6097ZM15.7469 14.2471V8.94175H19.8339C20.2855 10.5635 20.5518 12.3821 20.6097 14.2471H15.7469ZM14.2417 15.753V21.0584H10.1662C9.71464 19.4367 9.44834 17.618 9.39045 15.753H14.2417ZM9.39045 14.2471C9.44834 12.3821 9.71464 10.5635 10.1662 8.94175H14.2533V14.2471H9.39045Z" fill="#0C743C"/>
<path d="M25.6026 4.39743C22.7692 1.56403 19.0064 0 14.9943 0C10.9936 0 7.23083 1.56403 4.39743 4.39743C1.56403 7.23083 0 10.9936 0 14.9943C0 17.8957 0.827352 20.6951 2.39139 23.1205L0.646014 28.3566C0.555346 28.64 0.623347 28.9573 0.838685 29.1613C1.05402 29.3766 1.36003 29.4447 1.64337 29.354L6.87949 27.6086C9.30487 29.1726 12.1043 30 15.0057 30C19.0064 30 22.7805 28.436 25.6139 25.6026C28.4473 22.7692 30.0113 19.0064 30.0113 14.9943C30 10.9936 28.436 7.23083 25.6026 4.39743ZM14.9943 28.4133C12.2856 28.4133 9.66755 27.6086 7.43483 26.0786C7.29883 25.9879 7.15149 25.9426 6.99282 25.9426C6.91349 25.9426 6.82282 25.9539 6.74348 25.9879L2.64072 27.3593L4.01209 23.2565C4.09142 23.0185 4.05742 22.7692 3.91009 22.5652C2.38005 20.3325 1.57537 17.7144 1.57537 15.0057C1.57537 7.5935 7.5935 1.57537 14.9943 1.57537C22.3952 1.57537 28.4133 7.5935 28.4133 14.9943C28.4133 22.3952 22.3952 28.4133 14.9943 28.4133Z" fill="#0C743C"/>
</g>
<defs>
<clipPath id="clip0">
<rect width="30" height="30" fill="white"/>
</clipPath>
</defs>
</svg>
