<svg width="881" height="196" viewBox="0 0 881 196" fill="none" xmlns="http://www.w3.org/2000/svg">
<path d="M0.4 214H65.488L65.488 0.303988H0.4L0.4 214ZM201.474 56.464V130.48C201.474 153.808 190.53 162.16 179.298 162.16C166.626 162.16 158.85 154.672 158.85 132.208V56.464L93.7615 56.464V143.44C93.7615 194.704 122.273 216.88 160.002 216.88C176.994 216.88 192.834 211.12 204.642 199.024V214H266.562V56.464H201.474ZM404.871 53.584C386.439 53.584 369.735 59.632 357.351 72.016V56.464L295.431 56.464V214H360.519V139.984C360.519 116.656 371.751 108.304 384.999 108.304C396.807 108.304 404.295 115.792 404.295 135.376V214L469.383 214V124.144C469.383 74.608 441.159 53.584 404.871 53.584ZM614.511 56.464V74.32C604.719 60.208 589.455 53.584 567.855 53.584C527.823 53.584 492.111 82.672 492.111 129.328C492.111 175.984 527.823 205.36 567.855 205.36C587.151 205.36 601.551 199.888 611.343 188.656V191.536C611.343 212.56 600.687 224.368 573.903 224.368C556.911 224.368 535.887 218.32 523.503 208.816L501.615 253.168C521.199 266.128 549.423 272.752 580.527 272.752C640.719 272.752 676.431 243.664 676.431 182.608V56.464H614.511ZM585.135 154.672C569.871 154.672 558.062 144.592 558.062 129.328C558.062 114.064 569.871 104.272 585.135 104.272C600.399 104.272 611.919 114.064 611.919 129.328C611.919 144.592 600.399 154.672 585.135 154.672ZM788.445 216.88C842.013 216.88 880.029 182.896 880.029 135.088C880.029 87.28 842.013 53.584 788.445 53.584C735.165 53.584 696.861 87.28 696.861 135.088C696.861 182.896 735.165 216.88 788.445 216.88ZM788.445 166.192C774.045 166.192 762.812 155.536 762.812 135.088C762.812 114.64 774.045 104.272 788.445 104.272C802.845 104.272 814.077 114.64 814.077 135.088C814.077 155.536 802.845 166.192 788.445 166.192Z" fill="#D7CEC4" fill-opacity="0.4"/>
</svg>
