<svg width="227" height="227" viewBox="0 0 227 227" fill="none" xmlns="http://www.w3.org/2000/svg">
<path d="M0 227L2.62078 224.379L5.44316 227H0Z" fill="#D7CEC4"/>
<path d="M158.255 68.7447L227 137.691V143.135L155.432 71.5671L158.255 68.7447Z" fill="#D7CEC4"/>
<path d="M149.586 77.414L227 155.029V160.473L146.764 80.2364L149.586 77.414Z" fill="#D7CEC4"/>
<path d="M140.917 86.0826L227 172.367V177.608L138.095 88.905L140.917 86.0826Z" fill="#D7CEC4"/>
<path d="M132.249 94.7515L227 189.503V194.946L129.628 97.3723L132.249 94.7515Z" fill="#D7CEC4"/>
<path d="M123.58 103.42L227 206.84V212.283L120.959 106.041L123.58 103.42Z" fill="#D7CEC4"/>
<path d="M114.911 112.089L227 224.178V227H224.581L112.29 114.71L114.911 112.089Z" fill="#D7CEC4"/>
<path d="M106.242 120.758L212.686 227H207.243L103.622 123.378L106.242 120.758Z" fill="#D7CEC4"/>
<path d="M218.734 8.26535L227 16.7325V22.1757L215.912 11.0877L218.734 8.26535Z" fill="#D7CEC4"/>
<path d="M227 8.58307e-06V4.83838L224.581 2.41919L227 8.58307e-06Z" fill="#D7CEC4"/>
<path d="M210.066 16.9343L227 34.0701V39.5133L207.243 19.7566L210.066 16.9343Z" fill="#D7CEC4"/>
<path d="M201.397 25.6032L227 51.4078V56.851L198.574 28.4256L201.397 25.6032Z" fill="#D7CEC4"/>
<path d="M192.728 34.2718L227 68.5435V73.9867L190.107 36.8925L192.728 34.2718Z" fill="#D7CEC4"/>
<path d="M184.06 42.9403L227 85.8808V91.324L181.439 45.5611L184.06 42.9403Z" fill="#D7CEC4"/>
<path d="M175.391 51.6092L227 103.218V108.662L172.77 54.23L175.391 51.6092Z" fill="#D7CEC4"/>
<path d="M166.722 60.2782L227 120.355V125.798L164.101 62.899L166.722 60.2782Z" fill="#D7CEC4"/>
<path d="M97.775 129.225L195.349 227H189.906L94.9526 132.047L97.775 129.225Z" fill="#D7CEC4"/>
<path d="M89.1066 137.893L178.213 227H172.77L86.2842 140.716L89.1066 137.893Z" fill="#D7CEC4"/>
<path d="M80.4379 146.562L160.876 227H155.433L77.6155 149.385L80.4379 146.562Z" fill="#D7CEC4"/>
<path d="M71.7692 155.231L143.538 227H138.095L69.1484 157.852L71.7692 155.231Z" fill="#D7CEC4"/>
<path d="M63.1003 163.9L126.201 227H120.959L60.4795 166.52L63.1003 163.9Z" fill="#D7CEC4"/>
<path d="M54.4313 172.568L109.065 227H103.621L51.8105 175.189L54.4313 172.568Z" fill="#D7CEC4"/>
<path d="M45.9645 181.036L91.7274 227H86.2842L43.1421 183.858L45.9645 181.036Z" fill="#D7CEC4"/>
<path d="M37.2955 189.704L74.3897 227H68.9465L34.4731 192.527L37.2955 189.704Z" fill="#D7CEC4"/>
<path d="M28.6268 198.373L57.2538 227H51.8107L25.8044 201.195L28.6268 198.373Z" fill="#D7CEC4"/>
<path d="M19.9582 207.042L39.9164 227H34.4733L17.3374 209.663L19.9582 207.042Z" fill="#D7CEC4"/>
<path d="M11.2895 215.71L22.579 227H17.1358L8.6687 218.331L11.2895 215.71Z" fill="#D7CEC4"/>
</svg>
