<svg width="99" height="75" viewBox="0 0 99 75" fill="none" xmlns="http://www.w3.org/2000/svg">
<path d="M76.4988 45.0902C77.5994 45.0902 78.6555 44.9198 79.7068 44.7645C79.3662 45.9269 79.0158 47.1092 78.4532 48.1713C77.8906 49.7144 77.0121 51.0521 76.1385 52.3998C75.4081 53.8577 74.12 54.8447 73.1724 56.0922C72.1804 57.3046 70.8281 58.1112 69.7572 59.1182C68.7059 60.1703 67.329 60.6964 66.2334 61.4379C65.0884 62.1042 64.0914 62.8407 63.0254 63.1914L60.3653 64.3036L58.0259 65.2906L60.4196 75L63.3659 74.2786C64.3086 74.0381 65.4585 73.7575 66.7664 73.4218C68.1038 73.1713 69.5301 72.485 71.1193 71.8587C72.6887 71.1473 74.5049 70.6663 76.1928 69.524C77.8906 68.4319 79.8499 67.52 81.5772 66.0571C83.2503 64.5491 85.2688 63.2415 86.7593 61.3226C88.388 59.5291 89.9969 57.6453 91.2455 55.501C92.6916 53.4569 93.6737 51.2124 94.7101 48.993C95.6478 46.7736 96.4029 44.504 97.0198 42.2996C98.1895 37.8808 98.7126 33.6824 98.915 30.0902C99.0828 26.493 98.9841 23.502 98.7768 21.3377C98.7028 20.3156 98.5646 19.3236 98.4659 18.6373L98.3425 17.7956L98.2142 17.8256C97.3364 13.6632 95.3156 9.83804 92.3857 6.79269C89.4558 3.74735 85.7365 1.60625 81.658 0.617111C77.5794 -0.372032 73.3084 -0.168823 69.3389 1.20324C65.3694 2.5753 61.8636 5.06015 59.2271 8.37033C56.5907 11.6805 54.9313 15.6808 54.4408 19.9083C53.9504 24.1359 54.649 28.4181 56.4559 32.2594C58.2627 36.1008 61.1039 39.3444 64.6508 41.615C68.1978 43.8856 72.3055 45.0905 76.4988 45.0902ZM22.2104 45.0902C23.311 45.0902 24.3671 44.9198 25.4183 44.7645C25.0778 45.9269 24.7274 47.1092 24.1648 48.1713C23.6021 49.7144 22.7237 51.0521 21.8501 52.3998C21.1197 53.8577 19.8316 54.8447 18.884 56.0922C17.892 57.3046 16.5397 58.1112 15.4688 59.1182C14.4175 60.1703 13.0406 60.6964 11.9449 61.4379C10.8 62.1042 9.80302 62.8407 8.737 63.1914L6.07687 64.3036L3.73753 65.2906L6.13116 75L9.07754 74.2786C10.0202 74.0381 11.1701 73.7575 12.478 73.4218C13.8154 73.1713 15.2417 72.485 16.8309 71.8587C18.3954 71.1423 20.2165 70.6663 21.9044 69.519C23.6021 68.4269 25.5615 67.515 27.2888 66.0521C28.9619 64.5441 30.9804 63.2365 32.4709 61.3226C34.0996 59.5291 35.7085 57.6453 36.9571 55.501C38.4031 53.4569 39.3853 51.2124 40.4217 48.993C41.3594 46.7736 42.1145 44.504 42.7314 42.2996C43.9011 37.8808 44.4242 33.6824 44.6266 30.0902C44.7944 26.493 44.6957 23.502 44.4884 21.3377C44.4144 20.3156 44.2762 19.3236 44.1775 18.6373L44.0541 17.7956L43.9258 17.8256C43.048 13.6632 41.0272 9.83804 38.0973 6.79269C35.1674 3.74735 31.4481 1.60625 27.3696 0.617111C23.291 -0.372032 19.02 -0.168823 15.0505 1.20324C11.081 2.5753 7.57521 5.06015 4.93875 8.37033C2.30229 11.6805 0.64286 15.6808 0.152435 19.9083C-0.33799 24.1359 0.360619 28.4181 2.16745 32.2594C3.97428 36.1008 6.8155 39.3444 10.3624 41.615C13.9094 43.8856 18.0171 45.0905 22.2104 45.0902Z" fill="#D7CEC4"/>
</svg>
