<svg width="126" height="94" viewBox="0 0 126 94" fill="none" xmlns="http://www.w3.org/2000/svg">
<path d="M28.4952 37.3125C27.1014 37.3125 25.7639 37.525 24.4327 37.7187C24.8639 36.2687 25.3077 34.7937 26.0202 33.4687C26.7327 31.5437 27.8452 29.875 28.9514 28.1937C29.8764 26.375 31.5077 25.1437 32.7077 23.5875C33.9639 22.075 35.6764 21.0687 37.0327 19.8125C38.3639 18.5 40.1077 17.8437 41.4952 16.9187C42.9452 16.0875 44.2077 15.1687 45.5577 14.7312L48.9264 13.3437L51.8889 12.1125L48.8577 0L45.1264 0.899997C43.9327 1.2 42.4764 1.55 40.8202 1.96875C39.1264 2.28125 37.3202 3.1375 35.3077 3.91875C33.3202 4.80625 31.0202 5.40625 28.8827 6.83125C26.7327 8.19375 24.2514 9.33125 22.0639 11.1562C19.9452 13.0375 17.3889 14.6687 15.5014 17.0625C13.4389 19.3 11.4014 21.65 9.82017 24.325C7.98892 26.875 6.74517 29.675 5.43267 32.4437C4.24517 35.2125 3.28892 38.0437 2.50767 40.7937C1.02642 46.3062 0.36392 51.5438 0.10767 56.025C-0.10483 60.5125 0.0201703 64.2438 0.28267 66.9437C0.37642 68.2188 0.551421 69.4562 0.676421 70.3125L0.83267 71.3625L0.99517 71.325C2.1068 76.5177 4.66582 81.2896 8.37619 85.0886C12.0866 88.8877 16.7967 91.5587 21.9617 92.7926C27.1267 94.0266 32.5355 93.7731 37.5624 92.0615C42.5893 90.3498 47.029 87.25 50.3677 83.1205C53.7065 78.9911 55.808 74.0007 56.429 68.7268C57.0501 63.4529 56.1654 58.111 53.8773 53.3189C51.5891 48.5268 47.991 44.4804 43.4992 41.6478C39.0075 38.8152 33.8055 37.3121 28.4952 37.3125ZM97.2452 37.3125C95.8514 37.3125 94.5139 37.525 93.1827 37.7187C93.6139 36.2687 94.0577 34.7937 94.7702 33.4687C95.4827 31.5437 96.5952 29.875 97.7014 28.1937C98.6264 26.375 100.258 25.1437 101.458 23.5875C102.714 22.075 104.426 21.0687 105.783 19.8125C107.114 18.5 108.858 17.8437 110.245 16.9187C111.695 16.0875 112.958 15.1687 114.308 14.7312L117.676 13.3437L120.639 12.1125L117.608 0L113.876 0.899997C112.683 1.2 111.226 1.55 109.57 1.96875C107.876 2.28125 106.07 3.1375 104.058 3.91875C102.076 4.8125 99.7702 5.40625 97.6327 6.8375C95.4827 8.2 93.0014 9.3375 90.8139 11.1625C88.6952 13.0437 86.1389 14.675 84.2514 17.0625C82.1889 19.3 80.1514 21.65 78.5702 24.325C76.7389 26.875 75.4952 29.675 74.1827 32.4437C72.9952 35.2125 72.0389 38.0437 71.2577 40.7937C69.7764 46.3062 69.1139 51.5438 68.8577 56.025C68.6452 60.5125 68.7702 64.2438 69.0327 66.9437C69.1264 68.2188 69.3014 69.4562 69.4264 70.3125L69.5827 71.3625L69.7452 71.325C70.8568 76.5177 73.4158 81.2896 77.1262 85.0886C80.8366 88.8877 85.5467 91.5587 90.7117 92.7926C95.8767 94.0266 101.285 93.7731 106.312 92.0615C111.339 90.3498 115.779 87.25 119.118 83.1205C122.456 78.9911 124.558 74.0007 125.179 68.7268C125.8 63.4529 124.915 58.111 122.627 53.3189C120.339 48.5268 116.741 44.4804 112.249 41.6478C107.757 38.8152 102.556 37.3121 97.2452 37.3125Z" fill="#D7CEC4"/>
</svg>
