<svg width="72" height="584" viewBox="0 0 72 584" fill="none" xmlns="http://www.w3.org/2000/svg">
<path d="M72 587.896L72 569.078L51.436 569.078L51.436 560.833L72 547.156L72 525.428L48.332 541.627C44.743 533.188 37.856 527.659 27.477 527.659C20.59 527.659 15.352 529.696 11.375 533.673C6.81599 538.232 4.09999 545.41 4.09999 555.789L4.1 587.896L72 587.896ZM36.692 569.078L20.396 569.078L20.396 556.759C20.396 550.454 23.112 546.574 28.447 546.574C33.588 546.574 36.692 550.26 36.692 556.662L36.692 569.078ZM72 524.746L72 504.958L59.875 500.108L59.875 473.918L72 468.971L72 448.795L3.61499 477.701L3.61499 495.84L72 524.746ZM45.228 494.579L25.925 486.916L45.228 479.35L45.228 494.579ZM72 442.206L72 423.388L51.436 423.388L51.436 415.143L72 401.466L72 379.738L48.332 395.937C44.743 387.498 37.856 381.969 27.477 381.969C20.59 381.969 15.352 384.006 11.375 387.983C6.81599 392.542 4.09999 399.72 4.09999 410.099L4.09999 442.206L72 442.206ZM36.692 423.388L20.396 423.388L20.396 411.069C20.396 404.764 23.112 400.884 28.447 400.884C33.588 400.884 36.692 404.57 36.692 410.972L36.692 423.388ZM73.358 338.343C73.358 317.391 57.547 301.677 38.05 301.677C18.359 301.677 2.74198 317.197 2.74198 338.149C2.74199 359.101 18.553 374.815 38.05 374.815C57.741 374.815 73.358 359.295 73.358 338.343ZM56.383 338.149C56.383 348.431 47.847 355.512 38.05 355.512C28.059 355.512 19.717 348.625 19.717 338.343C19.717 327.964 28.253 320.883 38.05 320.883C48.041 320.883 56.383 327.77 56.383 338.149ZM73.164 266.946C73.164 257.537 69.09 251.523 63.464 246.479L58.905 251.426C63.173 255.403 66.471 260.156 66.471 266.558C66.471 277.034 57.838 284.988 46.974 284.988C36.013 284.988 27.38 277.228 27.38 267.043C27.38 260.253 30.581 255.597 34.752 251.62L29.708 246.867C24.761 251.523 20.784 257.44 20.784 266.946C20.784 281.593 32.812 292.651 46.974 292.651C61.233 292.651 73.164 281.593 73.164 266.946ZM73.164 212.661C73.164 197.529 61.136 186.374 46.974 186.374C32.618 186.374 20.784 197.432 20.784 212.467C20.784 227.599 32.812 238.657 46.974 238.657C61.33 238.657 73.164 227.696 73.164 212.661ZM66.471 212.467C66.471 223.04 57.741 230.994 46.974 230.994C36.207 230.994 27.38 223.525 27.38 212.661C27.38 202.088 36.207 194.037 46.974 194.037C57.741 194.037 66.471 201.603 66.471 212.467ZM72 170.031L72 162.562L28.447 162.562L28.447 146.751L22.045 146.751L22.045 162.659L17.971 162.659C10.793 162.659 7.30098 159.749 7.30098 153.929C7.30098 151.407 7.78597 149.37 8.56198 146.654L2.06298 146.654C1.18998 149.079 0.801978 151.407 0.801978 154.899C0.801978 159.458 2.15998 163.144 4.68198 165.666C7.49498 168.479 11.86 170.031 17.583 170.031L21.948 170.031L21.948 176.918L28.447 176.918L28.447 170.031L72 170.031ZM72 134.414L72 126.945L28.447 126.945L28.447 111.134L22.045 111.134L22.045 127.042L17.971 127.042C10.793 127.042 7.30097 124.132 7.30097 118.312C7.30097 115.79 7.78597 113.753 8.56197 111.037L2.06298 111.037C1.18998 113.462 0.801976 115.79 0.801977 119.282C0.801977 123.841 2.15998 127.527 4.68198 130.049C7.49498 132.862 11.86 134.414 17.583 134.414L21.948 134.414L21.948 141.301L28.447 141.301L28.447 134.414L72 134.414ZM49.981 98.0949L49.981 58.3249C48.817 58.2279 48.041 58.2279 47.362 58.2279C32.618 58.2279 20.784 66.7639 20.784 81.6049C20.784 95.4759 32.424 105.661 46.974 105.661C62.591 105.661 73.164 94.4089 73.164 80.6349C73.164 71.1289 69.381 65.0179 63.755 59.9739L59.584 64.6299C63.852 68.7039 66.665 73.5539 66.665 80.4409C66.665 89.2679 60.554 97.0279 49.981 98.0949ZM43.967 98.0949C34.267 97.0279 27.089 90.4319 27.089 81.7989C27.089 71.9049 34.849 66.6669 43.967 65.7939L43.967 98.0949ZM49.981 40.6906L49.981 0.920621C48.817 0.823623 48.041 0.823623 47.362 0.823623C32.618 0.823623 20.784 9.35963 20.784 24.2006C20.784 38.0716 32.424 48.2566 46.974 48.2566C62.591 48.2566 73.164 37.0046 73.164 23.2306C73.164 13.7246 69.381 7.61362 63.755 2.56962L59.584 7.22562C63.852 11.2996 66.665 16.1496 66.665 23.0366C66.665 31.8636 60.554 39.6236 49.981 40.6906ZM43.967 40.6906C34.267 39.6236 27.089 33.0276 27.089 24.3946C27.089 14.5006 34.849 9.26262 43.967 8.38962L43.967 40.6906Z" fill="#D7CEC4"/>
</svg>
