<svg width="359" height="359" viewBox="0 0 359 359" fill="none" xmlns="http://www.w3.org/2000/svg">
<path d="M359 0L354.855 4.14476L350.392 0H359Z" fill="#D7CEC4"/>
<path d="M108.721 250.28L0.000267029 141.241V132.633L113.184 245.817L108.721 250.28Z" fill="#D7CEC4"/>
<path d="M122.43 236.57L2.28882e-05 113.821V105.213L126.893 232.106L122.43 236.57Z" fill="#D7CEC4"/>
<path d="M136.14 222.861L0.000152588 86.4023V78.1128L140.603 218.397L136.14 222.861Z" fill="#D7CEC4"/>
<path d="M149.849 209.151L7.62939e-05 59.3017V50.6934L153.994 205.006L149.849 209.151Z" fill="#D7CEC4"/>
<path d="M163.559 195.441L0.000183105 31.8828V23.2744L167.704 191.297L163.559 195.441Z" fill="#D7CEC4"/>
<path d="M177.269 181.732L0.000289917 4.46359V0H3.82622L181.413 177.587L177.269 181.732Z" fill="#D7CEC4"/>
<path d="M190.978 168.022L22.6369 0H31.2452L195.123 163.878L190.978 168.022Z" fill="#D7CEC4"/>
<path d="M13.0722 345.928L0.000234604 332.538V323.929L17.5358 341.465L13.0722 345.928Z" fill="#D7CEC4"/>
<path d="M3.33786e-06 359V351.348L3.82593 355.174L3.33786e-06 359Z" fill="#D7CEC4"/>
<path d="M26.7815 332.218L0 305.118V296.51L31.2451 327.755L26.7815 332.218Z" fill="#D7CEC4"/>
<path d="M40.4913 318.509L0.000175476 277.699V269.09L44.9549 314.045L40.4913 318.509Z" fill="#D7CEC4"/>
<path d="M54.2007 304.799L-1.90735e-05 250.599V241.99L58.3455 300.655L54.2007 304.799Z" fill="#D7CEC4"/>
<path d="M67.9105 291.09L0.000213623 223.18V214.571L72.0553 286.945L67.9105 291.09Z" fill="#D7CEC4"/>
<path d="M81.6202 277.38L0.000320435 195.76V187.152L85.765 273.235L81.6202 277.38Z" fill="#D7CEC4"/>
<path d="M95.3296 263.67L9.15527e-05 168.66V160.051L99.4744 259.526L95.3296 263.67Z" fill="#D7CEC4"/>
<path d="M204.369 154.632L50.0561 0H58.6645L208.832 150.168L204.369 154.632Z" fill="#D7CEC4"/>
<path d="M218.078 140.922L77.1563 0H85.7647L222.542 136.458L218.078 140.922Z" fill="#D7CEC4"/>
<path d="M231.788 127.212L104.576 0H113.184L236.252 122.749L231.788 127.212Z" fill="#D7CEC4"/>
<path d="M245.497 113.503L131.995 0H140.603L249.642 109.358L245.497 113.503Z" fill="#D7CEC4"/>
<path d="M259.207 99.7931L159.414 0H167.704L263.352 95.6483L259.207 99.7931Z" fill="#D7CEC4"/>
<path d="M272.917 86.0835L186.515 0H195.123L277.062 81.9388L272.917 86.0835Z" fill="#D7CEC4"/>
<path d="M286.307 72.6927L213.934 0H222.542L290.771 68.2292L286.307 72.6927Z" fill="#D7CEC4"/>
<path d="M300.017 58.9832L241.353 0H249.961L304.481 54.5196L300.017 58.9832Z" fill="#D7CEC4"/>
<path d="M313.727 45.2736L268.453 0H277.061L318.19 40.81L313.727 45.2736Z" fill="#D7CEC4"/>
<path d="M327.436 31.564L295.872 0H304.481L331.581 27.4192L327.436 31.564Z" fill="#D7CEC4"/>
<path d="M341.146 17.8544L323.291 0H331.9L345.291 13.7096L341.146 17.8544Z" fill="#D7CEC4"/>
</svg>
